<svg xmlns="http://www.w3.org/2000/svg" viewBox="0 0 512 512">
  <defs>
    <linearGradient id="bg" x1="0%" y1="0%" x2="100%" y2="100%">
      <stop offset="0%" style="stop-color:#3b82f6"/>
      <stop offset="100%" style="stop-color:#1d4ed8"/>
    </linearGradient>
  </defs>
  <!-- Background -->
  <rect width="512" height="512" rx="96" fill="url(#bg)"/>
  <!-- Sun -->
  <circle cx="320" cy="160" r="72" fill="#fbbf24"/>
  <!-- Sun rays -->
  <g stroke="#fbbf24" stroke-width="12" stroke-linecap="round">
    <line x1="320" y1="60" x2="320" y2="40"/>
    <line x1="320" y1="280" x2="320" y2="260"/>
    <line x1="220" y1="160" x2="200" y2="160"/>
    <line x1="420" y1="160" x2="440" y2="160"/>
    <line x1="249" y1="89" x2="235" y2="75"/>
    <line x1="391" y1="231" x2="405" y2="245"/>
    <line x1="391" y1="89" x2="405" y2="75"/>
    <line x1="249" y1="231" x2="235" y2="245"/>
  </g>
  <!-- Cloud -->
  <g fill="white">
    <ellipse cx="200" cy="340" rx="100" ry="70"/>
    <ellipse cx="300" cy="360" rx="80" ry="56"/>
    <ellipse cx="140" cy="370" rx="60" ry="42"/>
    <ellipse cx="250" cy="310" rx="70" ry="50"/>
    <rect x="100" y="340" width="220" height="72" rx="0"/>
  </g>
</svg>
